<?xml version="1.0" encoding="utf-8"?>
<!-- Generator: Adobe Illustrator 23.0.1, SVG Export Plug-In . SVG Version: 6.00 Build 0)  -->
<svg version="1.0" id="Layer_1" xmlns="http://www.w3.org/2000/svg" xmlns:xlink="http://www.w3.org/1999/xlink" x="0px" y="0px"
	 width="270.1px" height="157.7px" viewBox="0 0 270.1 157.7" style="enable-background:new 0 0 270.1 157.7;" xml:space="preserve"
	>
<style type="text/css">
	.st0{fill-rule:evenodd;clip-rule:evenodd;fill:#005278;}
	.st1{fill-rule:evenodd;clip-rule:evenodd;fill:#FFF200;}
	.st2{fill:#16527F;}
	.st3{fill:#FFFFFF;}
</style>
<path class="st0" d="M116.4,121.7c-67.6,13.7-95.7,2-33.5-101C55.4,66.3,27.8,111.9,0.3,157.6C39,145.6,77.7,133.7,116.4,121.7z"/>
<path class="st1" d="M139.1,103.6c-67.6,13.7-95.7,2-33.5-101C78.1,48.2,50.6,93.8,23,139.4C61.7,127.5,100.4,115.6,139.1,103.6z"/>
<path class="st2" d="M56.1,118c-4,0.3-7.3,0.4-9.9,0.4c-1.7,0-2.8-0.3-3.4-0.9c-0.5-0.6-0.5-1.5,0-2.7l2.8-6.1
	c0.6-1.3,1.5-2.3,2.6-2.9c1.1-0.6,2.6-0.9,4.4-0.9h9.4l-3.9,2.7h-5.7c-1,0-1.7,0.4-2.1,1.1l-2.8,6.1c-0.1,0.3-0.1,0.5,0,0.7
	c0.2,0.2,0.4,0.3,0.8,0.3c0.4,0,0.8,0,1.2,0c0.4,0,0.9,0,1.4,0c0.5,0,1,0,1.4,0c0.5,0,1.1,0,1.9-0.1c0.8,0,1.7-0.1,2.9-0.1L56.1,118
	L56.1,118z M64.1,104.8l-6.1,13.3h11.3c1.7,0,3.1-0.3,4.2-0.9c1.1-0.6,1.9-1.5,2.5-2.7c0.2-0.5,0.4-1,0.4-1.4c0-1.1-0.7-1.8-1.9-2.1
	c0.8-0.2,1.5-0.5,2.1-1c0.7-0.5,1.2-1.1,1.5-1.9c0.5-1.2,0.5-2,0-2.6c-0.5-0.6-1.7-0.8-3.4-0.8H64.1L64.1,104.8z M71.5,114l-0.2,0.4
	c-0.3,0.8-1,1.1-2.1,1.1H64l1.2-2.7h5.2C71.5,112.8,71.8,113.2,71.5,114L71.5,114z M73.1,108.6L73,109c-0.3,0.8-1,1.1-2.1,1.1h-4.5
	l1.2-2.7h4.5C73.1,107.5,73.5,107.9,73.1,108.6z"/>
<g>
	<path class="st3" d="M144.1,76.8c-1.1,0-2.2,0.1-3.3,0.3c-1.1,0.2-2.1,0.5-3.1,1c-1,0.4-1.8,1-2.6,1.6c-0.8,0.6-1.4,1.3-2,2.2
		c-0.6,0.8-1.1,1.8-1.4,2.9c-0.3,1.1-0.5,2.3-0.5,3.6c0,1.3,0.2,2.5,0.6,3.6c0.4,1.1,0.8,2,1.5,2.8c0.6,0.8,1.3,1.5,2.1,2.1
		c0.8,0.6,1.6,1,2.6,1.4c0.9,0.4,1.9,0.6,3,0.8c1,0.2,2.1,0.3,3.2,0.3c0.8,0,1.7-0.1,2.4-0.2c0.8-0.1,1.5-0.3,2.2-0.5
		c0.7-0.2,1.3-0.4,1.9-0.5c0.2-0.3,0.3-0.6,0.5-1.1c0.2-0.5,0.3-1.1,0.4-1.8c0.1-0.7,0.2-1.4,0.3-2.2c-0.1-0.1-0.2-0.2-0.3-0.3
		c-0.2-0.1-0.3-0.1-0.5-0.1c-0.2,0-0.3,0.1-0.4,0.1c-0.2,0.6-0.5,1.1-0.9,1.7c-0.4,0.6-0.8,1.1-1.3,1.6c-0.5,0.5-1.2,0.9-1.9,1.2
		c-0.7,0.3-1.6,0.5-2.6,0.5c-0.8,0-1.5-0.1-2.3-0.4c-0.7-0.3-1.4-0.7-2.1-1.2c-0.6-0.5-1.2-1.2-1.7-2c-0.5-0.8-0.9-1.7-1.1-2.8
		c-0.3-1-0.4-2.2-0.4-3.5c0-1.3,0.2-2.5,0.4-3.5c0.3-1,0.7-1.9,1.2-2.7c0.5-0.8,1.1-1.4,1.7-1.9c0.6-0.5,1.3-0.9,2-1.1
		c0.7-0.2,1.4-0.4,2.2-0.4c1.6,0,2.9,0.4,3.9,1.2c1,0.8,1.8,1.9,2.2,3.5c0.1,0.1,0.2,0.1,0.4,0.2c0.2,0,0.4,0,0.5-0.1
		c0.2-0.1,0.3-0.2,0.3-0.3c-0.1-0.5-0.1-1-0.2-1.5c0-0.5-0.1-1-0.1-1.5c0-0.5-0.1-0.9-0.1-1.3c0-0.4,0-0.6,0-0.8
		c-0.2,0-0.6-0.1-1-0.2c-0.4-0.1-0.9-0.2-1.5-0.3c-0.6-0.1-1.2-0.2-1.9-0.3C145.7,76.9,145,76.9,144.1,76.8L144.1,76.8z M156,94.1
		c0,0.7,0,1.3-0.1,1.8c0,0.4-0.1,0.8-0.2,1c-0.1,0.2-0.3,0.4-0.5,0.5c-0.2,0.1-0.5,0.2-0.9,0.2l-0.9,0.2c-0.1,0.1-0.1,0.2-0.2,0.3
		c0,0.2,0,0.3,0,0.5c0,0.2,0.1,0.3,0.2,0.3c0.6,0,1.1,0,1.6-0.1c0.5,0,1,0,1.5,0c0.5,0,1,0,1.6,0c0.8,0,1.5,0,2.3,0
		c0.8,0,1.6,0,2.4,0.1c0.1-0.1,0.1-0.2,0.2-0.3c0-0.2,0-0.3,0-0.5c0-0.2-0.1-0.3-0.2-0.3l-0.9-0.2c-0.4-0.1-0.7-0.1-0.9-0.2
		c-0.2-0.1-0.4-0.3-0.5-0.5c-0.1-0.2-0.2-0.6-0.2-1c0-0.4-0.1-1-0.1-1.8v-4c0-0.2,0-0.4,0.1-0.5c0-0.1,0.2-0.2,0.3-0.2
		c0.2,0,0.4,0,0.8,0c0.4,0,0.7,0.1,1,0.2c0.3,0.2,0.5,0.5,0.7,0.9c0.4,0.9,0.8,1.7,1.2,2.5c0.4,0.8,0.9,1.7,1.4,2.5
		c0.5,0.8,1,1.4,1.6,1.9c0.6,0.5,1.3,0.9,2.1,1.1c0.8,0.2,1.7,0.4,2.6,0.4c0.3,0,0.7,0,1,0c0.3,0,0.6,0,0.9-0.1
		c0.3,0,0.5-0.1,0.7-0.2c0.1-0.1,0.1-0.2,0.1-0.3c0-0.1,0-0.2,0-0.3c0-0.1-0.1-0.2-0.2-0.2c-0.2,0-0.6-0.1-1-0.2
		c-0.4-0.1-0.8-0.4-1.2-0.7c-0.5-0.4-1-1-1.5-1.7c-0.5-0.7-1-1.6-1.6-2.6c-0.6-1-1.2-2.3-1.9-3.7c-0.1-0.2-0.1-0.3-0.1-0.4
		c0-0.1,0.1-0.2,0.3-0.3c0.4-0.2,0.8-0.4,1.2-0.7c0.4-0.3,0.8-0.6,1.1-1c0.3-0.4,0.6-0.8,0.8-1.4c0.2-0.5,0.3-1.2,0.3-1.9
		c0-1-0.2-2-0.7-2.8c-0.5-0.8-1.2-1.5-2.1-2c-0.4-0.2-0.9-0.5-1.6-0.6c-0.6-0.2-1.4-0.3-2.2-0.4c-0.8-0.1-1.7-0.1-2.6-0.1
		c-1,0-2,0-2.9,0c-0.9,0-1.8,0.1-2.7,0.1c-0.8,0-1.7,0.1-2.5,0.1c-0.1,0.1-0.2,0.2-0.3,0.3c0,0.2-0.1,0.3,0,0.5
		c0,0.2,0.1,0.3,0.2,0.3l0.9,0.1c0.3,0,0.6,0.1,0.8,0.2c0.2,0.1,0.3,0.3,0.4,0.5c0.1,0.3,0.1,0.6,0.2,1.1c0,0.5,0,1.1,0,1.9V94.1
		L156,94.1z M160.4,80.4c0-0.5,0-0.9,0.1-1.1c0.1-0.2,0.2-0.4,0.4-0.4c0.2-0.1,0.5-0.1,1-0.1c0.8,0,1.6,0.2,2.2,0.6
		c0.6,0.4,1.1,0.9,1.5,1.7c0.4,0.7,0.5,1.6,0.5,2.5c0,0.6-0.1,1.2-0.2,1.6c-0.1,0.5-0.3,0.8-0.4,1.1c-0.2,0.3-0.4,0.5-0.5,0.7
		c-0.3,0.3-0.6,0.5-1,0.7c-0.4,0.1-0.9,0.2-1.4,0.2c-0.5,0-0.8,0-1.1,0c-0.3,0-0.5-0.1-0.6-0.2c-0.1-0.1-0.2-0.2-0.2-0.4
		c0-0.2,0-0.4,0-0.7V80.4L160.4,80.4z M185.8,76.8c1.7,0,3.2,0.3,4.6,0.8c1.4,0.5,2.6,1.3,3.6,2.3c1,1,1.8,2.2,2.3,3.5
		c0.5,1.4,0.8,2.9,0.8,4.5c0,1.8-0.3,3.4-0.8,4.8c-0.6,1.4-1.4,2.6-2.4,3.6c-1,1-2.3,1.7-3.7,2.2c-1.4,0.5-3,0.8-4.8,0.8
		c-1.6,0-3.1-0.3-4.5-0.8c-1.4-0.5-2.6-1.3-3.6-2.2c-1-1-1.8-2.1-2.3-3.5c-0.6-1.4-0.8-2.9-0.8-4.6c0-1.3,0.2-2.5,0.6-3.7
		c0.4-1.1,0.9-2.2,1.6-3.1c0.7-0.9,1.5-1.8,2.5-2.4c1-0.7,2-1.2,3.2-1.6C183.1,77,184.4,76.9,185.8,76.8L185.8,76.8z M192,88.4
		c0-1.1-0.1-2.2-0.3-3.2c-0.2-1-0.5-1.9-0.8-2.8c-0.4-0.8-0.8-1.6-1.3-2.2c-0.5-0.6-1.1-1.1-1.8-1.4c-0.7-0.3-1.4-0.5-2.2-0.5
		c-1,0-1.9,0.2-2.6,0.7c-0.8,0.4-1.4,1.1-1.9,1.9c-0.5,0.8-0.9,1.8-1.2,2.9c-0.3,1.1-0.4,2.4-0.4,3.7c0,0.7,0,1.4,0.1,2.1
		c0.1,0.8,0.2,1.5,0.4,2.3c0.2,0.8,0.5,1.5,0.8,2.2c0.3,0.7,0.8,1.3,1.2,1.9c0.5,0.6,1.1,1,1.8,1.3c0.7,0.3,1.5,0.5,2.3,0.5
		c1.1,0,2-0.2,2.7-0.7c0.8-0.5,1.4-1.1,1.8-2c0.5-0.9,0.8-1.9,1-3C191.9,91,192,89.7,192,88.4L192,88.4z M208,91.5
		c0.4,0,0.7,0,0.9,0c0.2,0,0.4,0.1,0.5,0.2c0.1,0.1,0.2,0.2,0.2,0.4l0.9,2.8c0.2,0.6,0.3,1.1,0.5,1.5c0.1,0.4,0.2,0.6,0.2,0.7
		c0,0.1,0,0.1-0.1,0.2c0,0.1-0.1,0.1-0.3,0.2c-0.1,0.1-0.3,0.1-0.6,0.2l-1,0.2c-0.1,0.1-0.2,0.2-0.2,0.4c0,0.2,0,0.3,0,0.4
		c0,0.1,0.1,0.3,0.3,0.3c0.5,0,1,0,1.4-0.1c0.5,0,0.9,0,1.4,0c0.5,0,1,0,1.5,0c0.9,0,1.7,0,2.5,0c0.8,0,1.7,0,2.5,0.1
		c0.1-0.1,0.2-0.2,0.2-0.3c0-0.2,0-0.3,0-0.5c0-0.2-0.1-0.3-0.1-0.3l-1.2-0.2c-0.4-0.1-0.7-0.2-0.9-0.4c-0.2-0.2-0.4-0.5-0.6-0.9
		c-0.2-0.4-0.4-0.9-0.6-1.6l-4.4-12.7c-0.3-0.8-0.5-1.4-0.7-2c-0.2-0.5-0.3-1-0.5-1.4c-0.1-0.4-0.2-0.8-0.3-1.1
		c-0.1-0.2-0.2-0.4-0.3-0.5c-0.1-0.1-0.3-0.1-0.5-0.1c0,0-0.1,0.1-0.2,0.3c-0.1,0.2-0.4,0.4-0.6,0.6c-0.3,0.2-0.6,0.4-0.9,0.7
		c-0.3,0.2-0.7,0.4-1.1,0.5c0,0.3,0,0.7-0.1,1c-0.1,0.4-0.2,0.8-0.4,1.3c-0.2,0.5-0.4,1.1-0.7,1.8l-3,7.9c-0.3,0.8-0.6,1.5-0.8,2.1
		c-0.2,0.6-0.5,1.2-0.7,1.7c-0.2,0.5-0.4,1-0.6,1.4c-0.2,0.4-0.4,0.7-0.6,1c-0.2,0.2-0.4,0.4-0.7,0.5c-0.2,0.1-0.5,0.2-0.7,0.2
		l-0.9,0.1c-0.1,0.1-0.1,0.2-0.2,0.4c0,0.2,0,0.3,0,0.4c0,0.1,0.1,0.3,0.2,0.3c0.5,0,0.9,0,1.3,0c0.4,0,0.7,0,1,0c0.3,0,0.7,0,1,0
		c0.7,0,1.3,0,1.9,0c0.6,0,1.2,0,1.7,0.1c0.1-0.1,0.2-0.2,0.2-0.3c0-0.2,0-0.3,0-0.5c0-0.2-0.1-0.3-0.1-0.4l-1-0.2
		c-0.5-0.1-0.8-0.2-1-0.3c-0.2-0.1-0.3-0.2-0.3-0.3c0-0.1,0-0.3,0-0.4c0-0.2,0.1-0.4,0.2-0.7l1.3-3.8c0.1-0.2,0.1-0.4,0.2-0.4
		c0.1-0.1,0.2-0.2,0.3-0.2c0.1,0,0.3,0,0.6,0H208L208,91.5z M204.8,89.7c-0.3,0-0.5,0-0.6-0.1c-0.1,0-0.2-0.1-0.2-0.3
		c0-0.1,0-0.4,0.1-0.6l0.8-2.4c0.2-0.5,0.3-1,0.5-1.5c0.2-0.5,0.4-1,0.5-1.4c0.2-0.4,0.3-0.8,0.4-1c0.1,0.2,0.2,0.6,0.4,1
		c0.2,0.4,0.3,0.9,0.5,1.4c0.2,0.5,0.3,1,0.5,1.5l0.8,2.6c0.1,0.3,0.1,0.5,0.1,0.6c0,0.1-0.1,0.2-0.2,0.3c-0.1,0-0.3,0.1-0.6,0.1
		H204.8L204.8,89.7z M223.8,94.1V79.8c0-0.3,0-0.5,0-0.6c0-0.1-0.1-0.2-0.2-0.3c-0.1,0-0.3-0.1-0.5-0.1h-2c-0.6,0-1.1,0.1-1.5,0.2
		c-0.4,0.2-0.8,0.4-1,0.7c-0.3,0.3-0.5,0.7-0.8,1.1c-0.2,0.5-0.5,1-0.7,1.6c-0.1,0.1-0.3,0.1-0.4,0.1c-0.2,0-0.3,0-0.4-0.1
		c-0.1-0.1-0.2-0.2-0.3-0.3c0.2-0.8,0.4-1.5,0.5-2.1c0.1-0.7,0.2-1.3,0.3-1.9c0.1-0.6,0.2-1.1,0.2-1.5c0.1,0,0.1-0.1,0.2-0.1
		c0.1,0,0.2,0,0.2,0c0.1,0,0.2,0,0.2,0c0.1,0,0.2,0.1,0.2,0.1c0,0.1,0.1,0.2,0.1,0.3c0.1,0.1,0.2,0.2,0.4,0.2c0.2,0,0.4,0.1,0.8,0.1
		c0.4,0,0.8,0,1.4,0h12.1c0.7,0,1.3,0,1.6,0c0.4,0,0.7-0.1,0.9-0.2c0.2-0.1,0.3-0.3,0.4-0.5c0.1,0,0.1-0.1,0.2-0.1
		c0.1,0,0.1,0,0.2,0c0.1,0,0.2,0,0.3,0.1c0.1,0,0.2,0.1,0.2,0.2c-0.1,0.3-0.2,0.6-0.2,1.1c-0.1,0.4-0.1,0.9-0.2,1.4
		c0,0.5-0.1,1-0.1,1.6c0,0.5,0,1,0,1.5c-0.1,0.1-0.2,0.2-0.3,0.2c-0.2,0-0.3,0.1-0.5,0c-0.2,0-0.3-0.1-0.3-0.2
		c-0.1-0.5-0.3-1-0.4-1.4c-0.2-0.4-0.3-0.8-0.6-1.1c-0.2-0.3-0.6-0.6-0.9-0.8c-0.4-0.2-0.9-0.3-1.5-0.3h-1.9c-0.3,0-0.4,0-0.6,0.1
		c-0.1,0-0.2,0.1-0.2,0.3c0,0.1-0.1,0.3-0.1,0.6v14.3c0,0.7,0,1.3,0.1,1.8c0,0.4,0.1,0.8,0.2,1c0.1,0.2,0.3,0.4,0.5,0.5
		c0.2,0.1,0.5,0.2,0.9,0.2l1.3,0.2c0.1,0.1,0.1,0.2,0.2,0.3c0,0.2,0,0.3,0,0.5c0,0.2-0.1,0.3-0.2,0.3c-1,0-2-0.1-2.8-0.1
		c-0.8,0-1.6,0-2.4,0c-0.5,0-1.1,0-1.6,0c-0.6,0-1.2,0-1.8,0c-0.6,0-1.3,0-2.1,0.1c-0.1-0.1-0.1-0.2-0.2-0.3c0-0.2,0-0.3,0-0.5
		c0-0.2,0.1-0.3,0.2-0.3l1.5-0.2c0.4,0,0.7-0.1,0.9-0.2c0.2-0.1,0.4-0.3,0.5-0.5c0.1-0.2,0.2-0.6,0.2-1
		C223.8,95.5,223.8,94.9,223.8,94.1L223.8,94.1z M244.8,82.1c0-0.8,0-1.4,0.1-1.8c0-0.4,0.1-0.8,0.2-1c0.1-0.2,0.3-0.4,0.5-0.5
		c0.2-0.1,0.5-0.2,0.9-0.2l0.9-0.2c0.1-0.1,0.1-0.2,0.2-0.3c0-0.2,0-0.3,0-0.5c0-0.2-0.1-0.3-0.2-0.3c-0.9,0-1.7,0.1-2.5,0.1
		c-0.8,0-1.6,0-2.4,0c-0.8,0-1.6,0-2.4,0c-0.8,0-1.7,0-2.5-0.1c-0.1,0.1-0.1,0.2-0.2,0.3c0,0.2,0,0.3,0,0.5c0,0.2,0.1,0.3,0.2,0.3
		l0.9,0.2c0.4,0.1,0.7,0.1,0.9,0.2c0.2,0.1,0.4,0.3,0.5,0.5c0.1,0.2,0.2,0.6,0.2,1c0,0.4,0.1,1,0.1,1.8v12c0,0.8,0,1.4-0.1,1.8
		c0,0.4-0.1,0.8-0.2,1c-0.1,0.2-0.3,0.4-0.5,0.5c-0.2,0.1-0.5,0.2-0.9,0.2l-0.9,0.2c-0.1,0.1-0.1,0.2-0.2,0.3c0,0.2,0,0.3,0,0.5
		c0,0.2,0.1,0.3,0.2,0.3c0.9,0,1.7-0.1,2.5-0.1c0.8,0,1.6,0,2.4,0c0.8,0,1.5,0,2.3,0c0.8,0,1.7,0,2.5,0.1c0.1-0.1,0.1-0.2,0.2-0.3
		c0-0.2,0-0.3,0-0.5c0-0.2-0.1-0.3-0.2-0.3l-0.9-0.2c-0.4-0.1-0.7-0.1-0.9-0.2c-0.2-0.1-0.4-0.3-0.5-0.5c-0.1-0.2-0.2-0.6-0.2-1
		c0-0.4-0.1-1-0.1-1.8V82.1L244.8,82.1z M259,91.5h-3.9c-0.3,0-0.4,0-0.6,0c-0.1,0-0.2,0.1-0.3,0.2c-0.1,0.1-0.1,0.2-0.2,0.4
		l-1.3,3.8c-0.1,0.3-0.2,0.6-0.2,0.7c0,0.2,0,0.3,0,0.4c0,0.1,0.1,0.2,0.3,0.3c0.2,0.1,0.6,0.2,1,0.3l1,0.2c0.1,0.1,0.1,0.2,0.1,0.4
		c0,0.2,0,0.3,0,0.5c0,0.1-0.1,0.3-0.2,0.3c-0.6,0-1.1,0-1.7-0.1c-0.6,0-1.2,0-1.9,0c-0.4,0-0.7,0-1,0c-0.3,0-0.7,0-1,0
		c-0.4,0-0.8,0-1.3,0c-0.1-0.1-0.2-0.2-0.2-0.3c0-0.1,0-0.3,0-0.4c0-0.2,0.1-0.3,0.2-0.4l0.9-0.1c0.3,0,0.5-0.1,0.7-0.2
		c0.2-0.1,0.5-0.3,0.7-0.5c0.2-0.2,0.4-0.5,0.6-1c0.2-0.4,0.4-0.9,0.6-1.4c0.2-0.5,0.4-1.1,0.7-1.7c0.2-0.6,0.5-1.3,0.8-2.1l3-7.9
		c0.3-0.7,0.5-1.3,0.7-1.8c0.2-0.5,0.3-0.9,0.4-1.3c0.1-0.4,0.1-0.7,0.1-1c0.4-0.1,0.8-0.2,1.1-0.5c0.3-0.2,0.6-0.4,0.9-0.7
		c0.2-0.2,0.5-0.4,0.6-0.6c0.1-0.2,0.2-0.2,0.2-0.3c0.2,0,0.4,0,0.5,0.1c0.1,0.1,0.2,0.3,0.3,0.5c0.1,0.3,0.2,0.7,0.3,1.1
		c0.1,0.4,0.3,0.9,0.5,1.4c0.2,0.6,0.4,1.2,0.7,2l4.4,12.7c0.2,0.6,0.4,1.2,0.6,1.6c0.2,0.4,0.4,0.7,0.6,0.9
		c0.2,0.2,0.6,0.3,0.9,0.4l1.2,0.2c0.1,0.1,0.1,0.2,0.1,0.3c0,0.2,0,0.3,0,0.5c0,0.2-0.1,0.3-0.2,0.3c-0.8,0-1.6-0.1-2.5-0.1
		c-0.8,0-1.7,0-2.6,0c-0.5,0-1,0-1.5,0c-0.5,0-1,0-1.4,0c-0.5,0-0.9,0-1.4,0.1c-0.1-0.1-0.2-0.2-0.3-0.3c0-0.1-0.1-0.3,0-0.4
		c0-0.2,0.1-0.3,0.2-0.4l1-0.2c0.2,0,0.4-0.1,0.6-0.2c0.1-0.1,0.2-0.1,0.3-0.2c0-0.1,0.1-0.1,0.1-0.2c0-0.1-0.1-0.4-0.2-0.7
		c-0.1-0.4-0.3-0.9-0.5-1.5l-0.9-2.8c0-0.2-0.1-0.3-0.2-0.4c-0.1-0.1-0.3-0.1-0.5-0.2C259.7,91.5,259.4,91.5,259,91.5L259,91.5z
		 M255.8,89.7h3.1c0.2,0,0.4,0,0.6-0.1c0.1,0,0.2-0.1,0.2-0.3c0-0.1,0-0.3-0.1-0.6l-0.8-2.6c-0.2-0.5-0.3-1-0.5-1.5
		c-0.2-0.5-0.3-1-0.5-1.4c-0.2-0.4-0.3-0.7-0.4-1c-0.1,0.3-0.2,0.6-0.4,1c-0.2,0.4-0.3,0.9-0.5,1.4c-0.2,0.5-0.4,1-0.5,1.5l-0.8,2.4
		c-0.1,0.3-0.1,0.5-0.1,0.6c0,0.1,0.1,0.2,0.2,0.3C255.3,89.7,255.5,89.7,255.8,89.7L255.8,89.7z M133.6,133.1c0,0.7,0,1.3-0.1,1.7
		c0,0.4-0.1,0.8-0.2,1c-0.1,0.2-0.3,0.4-0.5,0.5c-0.2,0.1-0.5,0.2-0.9,0.2l-0.9,0.2c-0.1,0-0.1,0.1-0.2,0.3c0,0.2,0,0.3,0,0.5
		c0,0.2,0.1,0.3,0.2,0.4c0.9,0,1.8-0.1,2.6-0.1c0.8,0,1.6,0,2.4,0c0.5,0,1,0,1.6,0.1c0.6,0,1.2,0.1,1.8,0.1c0.7,0,1.4,0,2.1-0.1
		c0.7,0,1.5-0.1,2.2-0.2c0.7-0.1,1.5-0.3,2.1-0.5c0.5-0.2,1-0.4,1.5-0.7c0.5-0.3,0.9-0.7,1.2-1.1c0.4-0.5,0.6-1,0.8-1.6
		c0.2-0.6,0.3-1.3,0.3-2c0-0.8-0.1-1.5-0.4-2.1c-0.2-0.6-0.6-1.1-1-1.6c-0.4-0.4-0.9-0.8-1.5-1.1c-0.6-0.3-1.2-0.5-1.8-0.6
		c-0.1,0-0.3-0.1-0.3-0.1c-0.1,0-0.1-0.1-0.1-0.1c0-0.1,0.1-0.2,0.2-0.2c0.1-0.1,0.3-0.1,0.4-0.1c0.2,0,0.4-0.1,0.7-0.3
		c0.3-0.1,0.6-0.3,0.9-0.5c0.3-0.2,0.6-0.5,0.8-0.8c0.3-0.3,0.5-0.7,0.6-1.1c0.2-0.4,0.2-0.9,0.2-1.4c0-1-0.2-1.8-0.6-2.5
		c-0.4-0.7-0.9-1.2-1.6-1.7c-0.7-0.4-1.6-0.7-2.7-0.9c-1.1-0.2-2.4-0.3-3.9-0.3c-1.1,0-2.1,0-3,0c-0.9,0-1.8,0.1-2.6,0.1
		c-0.8,0-1.7,0.1-2.5,0.1c-0.1,0-0.2,0.1-0.3,0.2c-0.1,0.1-0.1,0.2-0.1,0.4c0,0.1,0,0.3,0.1,0.4c0,0.1,0.1,0.2,0.2,0.2l0.9,0.1
		c0.3,0,0.6,0.1,0.8,0.2c0.2,0.1,0.3,0.3,0.4,0.5c0.1,0.2,0.1,0.6,0.2,1.1c0,0.5,0,1.1,0,1.9V133.1L133.6,133.1z M138.1,119.5
		c0-0.4,0-0.6,0-0.9c0-0.2,0.1-0.4,0.2-0.5c0.1-0.1,0.3-0.2,0.5-0.2c0.2,0,0.5-0.1,0.9-0.1c0.8,0,1.4,0.2,2,0.5
		c0.6,0.3,1.1,0.8,1.4,1.4c0.4,0.6,0.5,1.4,0.5,2.3c0,0.5-0.1,1-0.2,1.4c-0.1,0.4-0.4,0.8-0.7,1.2c-0.3,0.4-0.7,0.6-1.2,0.8
		c-0.5,0.2-1.1,0.3-1.8,0.3c-0.4,0-0.7,0-1,0c-0.2,0-0.4-0.1-0.5-0.1c-0.1-0.1-0.2-0.1-0.2-0.3c0-0.1,0-0.3,0-0.5V119.5L138.1,119.5
		z M138.1,128.5c0-0.3,0-0.6,0-0.8c0-0.2,0.1-0.3,0.2-0.4c0.1-0.1,0.3-0.1,0.5-0.2c0.2,0,0.6,0,1,0c1,0,1.9,0.2,2.6,0.6
		c0.7,0.4,1.2,1,1.6,1.7c0.4,0.7,0.5,1.6,0.5,2.5c0,0.9-0.1,1.7-0.4,2.3c-0.3,0.7-0.7,1.2-1.2,1.6c-0.5,0.4-1.2,0.6-2,0.6
		c-0.6,0-1.1-0.1-1.5-0.3c-0.4-0.2-0.7-0.5-0.9-0.8c-0.2-0.4-0.3-0.8-0.4-1.3c-0.1-0.5-0.1-1.1-0.1-1.7V128.5z"/>
	<path class="st3" d="M155.8,133.1c0,0.7,0,1.3-0.1,1.8c0,0.4-0.1,0.8-0.2,1c-0.1,0.2-0.3,0.4-0.5,0.5c-0.2,0.1-0.5,0.2-0.9,0.2
		l-0.9,0.2c-0.1,0.1-0.1,0.2-0.2,0.3c0,0.2,0,0.3,0,0.5c0,0.2,0.1,0.3,0.2,0.3c0.6,0,1.1,0,1.6-0.1c0.5,0,1,0,1.5,0c0.5,0,1,0,1.6,0
		c0.8,0,1.5,0,2.3,0c0.8,0,1.6,0,2.4,0.1c0.1-0.1,0.1-0.2,0.2-0.3c0-0.2,0-0.3,0-0.5c0-0.2-0.1-0.3-0.2-0.3l-0.9-0.2
		c-0.4-0.1-0.7-0.1-0.9-0.2c-0.2-0.1-0.4-0.3-0.5-0.5c-0.1-0.2-0.2-0.6-0.2-1c0-0.4-0.1-1-0.1-1.8v-4c0-0.2,0-0.4,0.1-0.5
		c0-0.1,0.2-0.2,0.3-0.2c0.2,0,0.4,0,0.8,0c0.4,0,0.7,0.1,1,0.2c0.3,0.2,0.5,0.5,0.7,0.9c0.4,0.9,0.8,1.7,1.2,2.5
		c0.4,0.8,0.9,1.7,1.4,2.5c0.5,0.8,1,1.4,1.6,1.9c0.6,0.5,1.3,0.9,2.1,1.1c0.8,0.2,1.7,0.4,2.6,0.4c0.3,0,0.7,0,1,0
		c0.3,0,0.6,0,0.9-0.1c0.3,0,0.5-0.1,0.7-0.2c0.1-0.1,0.1-0.2,0.1-0.3c0-0.1,0-0.2,0-0.3c0-0.1-0.1-0.2-0.2-0.2
		c-0.2,0-0.6-0.1-1-0.2c-0.4-0.1-0.8-0.4-1.2-0.7c-0.5-0.4-1-1-1.5-1.7c-0.5-0.7-1-1.6-1.6-2.6c-0.6-1.1-1.2-2.3-1.9-3.7
		c-0.1-0.2-0.1-0.3-0.1-0.4c0-0.1,0.1-0.2,0.3-0.3c0.4-0.2,0.8-0.4,1.2-0.7c0.4-0.3,0.8-0.6,1.1-1c0.3-0.4,0.6-0.8,0.8-1.4
		c0.2-0.5,0.3-1.2,0.3-1.9c0-1-0.2-2-0.7-2.8c-0.5-0.8-1.2-1.5-2.1-2c-0.4-0.2-0.9-0.5-1.6-0.6c-0.6-0.2-1.4-0.3-2.2-0.4
		c-0.8-0.1-1.7-0.1-2.6-0.1c-1,0-2,0-2.9,0c-0.9,0-1.8,0.1-2.7,0.1c-0.8,0-1.7,0.1-2.5,0.1c-0.1,0.1-0.2,0.2-0.3,0.3
		c0,0.2-0.1,0.3,0,0.5c0,0.2,0.1,0.3,0.2,0.3l0.9,0.1c0.3,0,0.6,0.1,0.8,0.2c0.2,0.1,0.3,0.3,0.4,0.5c0.1,0.3,0.1,0.6,0.2,1.1
		c0,0.5,0,1.1,0,1.9V133.1L155.8,133.1z M160.3,119.4c0-0.5,0-0.9,0.1-1.1c0.1-0.2,0.2-0.4,0.4-0.4c0.2-0.1,0.5-0.1,1-0.1
		c0.8,0,1.6,0.2,2.2,0.6c0.6,0.4,1.1,0.9,1.5,1.7c0.4,0.7,0.5,1.6,0.5,2.5c0,0.6-0.1,1.2-0.2,1.6c-0.1,0.5-0.3,0.8-0.4,1.1
		c-0.2,0.3-0.4,0.5-0.5,0.7c-0.3,0.3-0.6,0.5-1,0.7c-0.4,0.1-0.9,0.2-1.4,0.2c-0.5,0-0.8,0-1.1,0c-0.3,0-0.5-0.1-0.6-0.2
		c-0.1-0.1-0.2-0.2-0.2-0.4c0-0.2,0-0.4,0-0.7V119.4L160.3,119.4z M187.2,115.9c-1.4,0-2.6,0.2-3.8,0.6c-1.2,0.4-2.2,0.9-3.2,1.6
		c-1,0.7-1.8,1.5-2.5,2.4c-0.7,0.9-1.2,2-1.6,3.1c-0.4,1.1-0.5,2.4-0.6,3.7c0,1.7,0.3,3.2,0.8,4.6c0.6,1.4,1.3,2.5,2.3,3.5
		c1,1,2.2,1.7,3.6,2.2c1.4,0.5,2.9,0.8,4.5,0.8c1.8,0,3.3-0.3,4.8-0.8c1.4-0.5,2.7-1.3,3.7-2.2c1-1,1.8-2.2,2.4-3.6
		c0.6-1.4,0.8-3,0.8-4.8c0-1.7-0.3-3.2-0.8-4.5c-0.6-1.4-1.3-2.5-2.3-3.5c-1-1-2.2-1.7-3.6-2.3C190.5,116.1,188.9,115.9,187.2,115.9
		L187.2,115.9z M193.4,127.4c0,1.3-0.1,2.6-0.3,3.7c-0.2,1.1-0.6,2.1-1,3c-0.5,0.9-1.1,1.5-1.8,2c-0.7,0.5-1.7,0.7-2.7,0.7
		c-0.9,0-1.7-0.2-2.3-0.5c-0.7-0.3-1.3-0.8-1.8-1.3c-0.5-0.6-0.9-1.2-1.2-1.9c-0.3-0.7-0.6-1.4-0.8-2.2c-0.2-0.8-0.3-1.5-0.4-2.3
		c-0.1-0.8-0.1-1.5-0.1-2.1c0-1.4,0.1-2.6,0.4-3.7c0.3-1.1,0.7-2.1,1.2-2.9c0.5-0.8,1.2-1.4,1.9-1.9c0.8-0.4,1.6-0.7,2.6-0.7
		c0.8,0,1.5,0.2,2.2,0.5c0.7,0.3,1.3,0.8,1.8,1.4c0.5,0.6,1,1.3,1.3,2.2c0.4,0.8,0.6,1.8,0.8,2.8
		C193.3,125.2,193.4,126.3,193.4,127.4L193.4,127.4z M209.9,121c0-0.7,0-1.3,0.1-1.8c0-0.4,0.1-0.8,0.2-1c0.1-0.2,0.3-0.4,0.5-0.5
		c0.2-0.1,0.5-0.2,0.9-0.2l0.9-0.1c0.1-0.1,0.2-0.2,0.2-0.3c0-0.2,0-0.3,0-0.5c0-0.2-0.1-0.3-0.2-0.3c-0.9,0-1.7,0.1-2.5,0.1
		c-0.8,0-1.6,0-2.4,0c-1.6,0-3.2,0-4.9-0.1c-0.1,0.1-0.2,0.2-0.2,0.3c0,0.2,0,0.3,0,0.5c0,0.2,0.1,0.3,0.2,0.3l0.9,0.1
		c0.4,0,0.7,0.1,0.9,0.2c0.2,0.1,0.4,0.3,0.5,0.5c0.1,0.2,0.2,0.6,0.2,1c0,0.4,0.1,1,0.1,1.8v12.1c0,0.7,0,1.3-0.1,1.8
		c0,0.4-0.1,0.8-0.2,1c-0.1,0.2-0.3,0.4-0.5,0.5c-0.2,0.1-0.5,0.2-0.9,0.2l-0.9,0.1c-0.1,0.1-0.1,0.2-0.2,0.3c0,0.2,0,0.3,0,0.5
		c0,0.2,0.1,0.3,0.2,0.3c0.9,0,1.7-0.1,2.5-0.1c0.8,0,1.6,0,2.3,0c0.8,0,1.6,0,2.4,0c0.8,0,1.7,0,2.5,0.1c0.1-0.1,0.1-0.2,0.2-0.3
		c0-0.2,0-0.3,0-0.5c0-0.2-0.1-0.3-0.2-0.4l-0.9-0.1c-0.4,0-0.7-0.1-0.9-0.2c-0.2-0.1-0.4-0.3-0.5-0.5c-0.1-0.2-0.2-0.6-0.2-1
		c0-0.4-0.1-1-0.1-1.8v-3.4c0-0.6,0-1,0-1.4c0-0.3,0.1-0.5,0.2-0.7c0.1-0.1,0.3-0.2,0.5-0.2c0.2,0,0.5,0.1,0.7,0.3
		c0.2,0.2,0.5,0.5,0.8,0.8c0.3,0.4,0.6,0.9,1,1.5l1.7,2.6c0.1,0.1,0.2,0.3,0.4,0.6c0.2,0.3,0.4,0.6,0.6,0.9c0.2,0.3,0.4,0.6,0.6,0.9
		c0.2,0.3,0.3,0.4,0.3,0.5c0.1,0.1,0.2,0.3,0.2,0.4c0,0.1,0.1,0.2,0.1,0.3c0,0.1,0,0.1-0.1,0.2c-0.1,0.1-0.2,0.1-0.4,0.2l-0.8,0.2
		c-0.1,0.1-0.2,0.2-0.2,0.4c0,0.2,0,0.3,0,0.5c0,0.2,0.1,0.3,0.3,0.3c0.9,0,1.8-0.1,2.6-0.1c0.8,0,1.7,0,2.5,0c1.5,0,3.1,0,4.7,0.1
		c0.1-0.1,0.2-0.2,0.2-0.3c0-0.1,0-0.3,0-0.4c0-0.2-0.1-0.3-0.1-0.4l-1-0.2c-0.3,0-0.6-0.1-0.8-0.2c-0.3-0.1-0.5-0.2-0.8-0.4
		c-0.3-0.2-0.5-0.5-0.8-0.9c-0.7-1-1.4-2-2.1-3c-0.7-1-1.3-2-1.9-2.9c-0.6-0.9-1.2-1.8-1.7-2.6c-0.3-0.5-0.6-0.9-0.7-1.1
		c-0.2-0.3-0.3-0.5-0.3-0.6c-0.1-0.1-0.1-0.2-0.1-0.3c0-0.1,0-0.2,0.1-0.3c0.1-0.1,0.2-0.3,0.3-0.5l1.5-1.7c0.7-0.8,1.3-1.5,1.9-2
		c0.6-0.6,1.1-1,1.6-1.4c0.5-0.3,0.9-0.6,1.4-0.8c0.3-0.1,0.8-0.3,1.2-0.4c0.5-0.1,1-0.2,1.6-0.2c0.1-0.1,0.1-0.2,0.2-0.4
		c0-0.2,0-0.3-0.1-0.5c0-0.1-0.1-0.2-0.3-0.3c-0.7,0-1.3,0.1-2,0.1c-0.7,0-1.3,0-1.9,0c-0.6,0-1.2,0-1.8,0c-0.6,0-1.4,0-2.2-0.1
		c-0.1,0-0.2,0.2-0.3,0.3c-0.1,0.1-0.1,0.3,0,0.5c0,0.2,0.1,0.3,0.2,0.4l1.1,0.2c0.2,0,0.4,0.1,0.4,0.2c0.1,0.1,0.1,0.2,0.1,0.2
		c0,0.1,0,0.2-0.1,0.3c-0.1,0.1-0.2,0.3-0.3,0.5c-0.4,0.5-0.8,1.1-1.3,1.7c-0.5,0.6-1,1.2-1.6,1.9c-0.6,0.6-1.2,1.3-1.7,1.9
		c-0.1,0.2-0.3,0.3-0.5,0.6c-0.2,0.2-0.5,0.4-0.7,0.6c-0.2,0.2-0.5,0.4-0.7,0.5c-0.2,0.1-0.4,0.2-0.6,0.2c-0.1,0-0.2,0-0.3-0.1
		c-0.1-0.1-0.2-0.2-0.2-0.3c0-0.2-0.1-0.4-0.1-0.8V121L209.9,121z M234.7,119.1c0-0.4,0-0.7,0-0.9c0-0.2,0.1-0.3,0.3-0.3
		c0.2,0,0.4-0.1,0.8-0.1h2.6c0.8,0,1.4,0.1,2,0.3c0.5,0.2,0.9,0.4,1.2,0.7c0.2,0.2,0.4,0.6,0.6,1c0.2,0.4,0.4,1,0.6,1.5
		c0.1,0.1,0.3,0.2,0.4,0.2c0.2,0,0.3,0,0.5,0c0.2,0,0.2-0.1,0.3-0.3c0-0.6-0.1-1.1-0.1-1.6c0-0.5-0.1-1-0.1-1.5
		c0-0.5-0.1-0.9-0.1-1.2c0-0.3,0-0.6-0.1-0.7c-0.1,0-0.4,0-0.9,0.1c-0.4,0-0.9,0-1.5,0c-0.6,0-1.3,0-2,0h-6.9c-0.8,0-1.6,0-2.3,0
		c-0.8,0-1.6,0-2.3-0.1c-0.1,0.1-0.2,0.2-0.2,0.3c0,0.2,0,0.3,0,0.5c0,0.2,0.1,0.3,0.2,0.3l0.8,0.2c0.4,0.1,0.7,0.1,0.9,0.2
		c0.2,0.1,0.4,0.3,0.5,0.5c0.1,0.2,0.2,0.5,0.2,1c0,0.4,0.1,1,0.1,1.7v12.1c0,0.7,0,1.3-0.1,1.8c0,0.4-0.1,0.8-0.2,1
		c-0.1,0.2-0.3,0.4-0.5,0.5c-0.2,0.1-0.5,0.2-0.9,0.2l-1.5,0.2c-0.1,0.1-0.1,0.2-0.2,0.3c0,0.2,0,0.3,0,0.5c0,0.2,0.1,0.3,0.2,0.3
		c0.8,0,1.5,0,2.2-0.1c0.6,0,1.2,0,1.8,0c0.6,0,1.1,0,1.6,0h4.2c0.7,0,1.4,0,2.1,0c0.7,0,1.4,0,2.1,0c0.7,0,1.3,0,1.9,0
		c0.6,0,1.1,0,1.5,0c0.1-0.2,0.2-0.5,0.4-0.9c0.1-0.4,0.3-0.9,0.4-1.4c0.1-0.5,0.3-1,0.4-1.5c0.1-0.5,0.2-1,0.2-1.4
		c0-0.1-0.2-0.2-0.3-0.3c-0.2-0.1-0.3-0.1-0.5-0.1c-0.2,0-0.3,0.1-0.4,0.2c-0.4,0.7-0.7,1.3-1,1.8c-0.3,0.5-0.6,0.8-1,1.1
		c-0.3,0.3-0.7,0.5-1,0.6c-0.4,0.1-0.8,0.2-1.2,0.2c-0.4,0-0.9,0-1.5,0c-0.6,0-1.1,0-1.5,0c-0.4,0-0.7-0.1-1-0.2
		c-0.2-0.1-0.4-0.2-0.6-0.3c-0.2-0.1-0.3-0.2-0.4-0.4c-0.2-0.3-0.3-0.7-0.4-1.2c-0.1-0.5-0.1-1.1-0.1-1.9v-3.9c0-0.3,0-0.6,0-0.7
		c0-0.1,0.1-0.2,0.2-0.3c0.1,0,0.3,0,0.6,0h2.2c0.6,0,1,0,1.3,0.1c0.3,0.1,0.5,0.3,0.7,0.5c0.2,0.3,0.3,0.6,0.4,1.2l0.2,0.8
		c0.1,0.1,0.2,0.2,0.4,0.2c0.2,0,0.3,0,0.5,0c0.2,0,0.3-0.1,0.3-0.2c0-0.5-0.1-1.1-0.1-1.7c0-0.6,0-1.2,0-1.8c0-0.6,0-1.2,0-1.8
		c0-0.6,0-1.1,0.1-1.6c-0.1-0.1-0.2-0.2-0.3-0.2c-0.2,0-0.3,0-0.5,0c-0.2,0-0.3,0.1-0.4,0.2l-0.2,0.8c-0.1,0.5-0.2,0.9-0.4,1.2
		c-0.2,0.3-0.4,0.4-0.7,0.5c-0.3,0.1-0.7,0.1-1.3,0.1h-2.2c-0.3,0-0.5,0-0.6,0c-0.1,0-0.2-0.1-0.2-0.3c0-0.1,0-0.4,0-0.7V119.1
		L234.7,119.1z M250.9,133.1c0,0.7,0,1.3-0.1,1.8c0,0.4-0.1,0.8-0.2,1c-0.1,0.2-0.3,0.4-0.5,0.5c-0.2,0.1-0.5,0.2-0.9,0.2l-0.9,0.2
		c-0.1,0.1-0.1,0.2-0.2,0.3c0,0.2,0,0.3,0,0.5c0,0.2,0.1,0.3,0.2,0.3c0.6,0,1.1,0,1.6-0.1c0.5,0,1,0,1.5,0c0.5,0,1,0,1.6,0
		c0.8,0,1.5,0,2.3,0c0.8,0,1.6,0,2.4,0.1c0.1-0.1,0.1-0.2,0.2-0.3c0-0.2,0-0.3,0-0.5c0-0.2-0.1-0.3-0.2-0.3l-0.9-0.2
		c-0.4-0.1-0.7-0.1-0.9-0.2c-0.2-0.1-0.4-0.3-0.5-0.5c-0.1-0.2-0.2-0.6-0.2-1c0-0.4-0.1-1-0.1-1.8v-4c0-0.2,0-0.4,0.1-0.5
		c0-0.1,0.2-0.2,0.3-0.2c0.2,0,0.4,0,0.8,0c0.4,0,0.7,0.1,1,0.2c0.3,0.2,0.5,0.5,0.7,0.9c0.4,0.9,0.8,1.7,1.2,2.5
		c0.4,0.8,0.9,1.7,1.4,2.5c0.5,0.8,1,1.4,1.6,1.9c0.6,0.5,1.3,0.9,2.1,1.1c0.8,0.2,1.7,0.4,2.6,0.4c0.3,0,0.7,0,1,0
		c0.3,0,0.6,0,0.9-0.1c0.3,0,0.5-0.1,0.7-0.2c0.1-0.1,0.1-0.2,0.1-0.3c0-0.1,0-0.2,0-0.3c0-0.1-0.1-0.2-0.2-0.2
		c-0.2,0-0.6-0.1-1-0.2c-0.4-0.1-0.8-0.4-1.2-0.7c-0.5-0.4-1-1-1.5-1.7c-0.5-0.7-1-1.6-1.6-2.6c-0.6-1.1-1.2-2.3-1.9-3.7
		c-0.1-0.2-0.1-0.3-0.1-0.4c0-0.1,0.1-0.2,0.3-0.3c0.4-0.2,0.8-0.4,1.2-0.7c0.4-0.3,0.8-0.6,1.1-1c0.3-0.4,0.6-0.8,0.8-1.4
		c0.2-0.5,0.3-1.2,0.3-1.9c0-1-0.2-2-0.7-2.8c-0.5-0.8-1.2-1.5-2.1-2c-0.4-0.2-0.9-0.5-1.6-0.6c-0.6-0.2-1.4-0.3-2.2-0.4
		c-0.8-0.1-1.7-0.1-2.6-0.1c-1,0-2,0-2.9,0c-0.9,0-1.8,0.1-2.7,0.1c-0.8,0-1.7,0.1-2.5,0.1c-0.1,0.1-0.2,0.2-0.3,0.3
		c0,0.2-0.1,0.3,0,0.5c0,0.2,0.1,0.3,0.2,0.3l0.9,0.1c0.3,0,0.6,0.1,0.8,0.2c0.2,0.1,0.3,0.3,0.4,0.5c0.1,0.3,0.1,0.6,0.2,1.1
		c0,0.5,0,1.1,0,1.9V133.1L250.9,133.1z M255.3,119.4c0-0.5,0-0.9,0.1-1.1c0.1-0.2,0.2-0.4,0.4-0.4c0.2-0.1,0.5-0.1,1-0.1
		c0.8,0,1.6,0.2,2.2,0.6c0.6,0.4,1.1,0.9,1.5,1.7c0.4,0.7,0.5,1.6,0.5,2.5c0,0.6-0.1,1.2-0.2,1.6c-0.1,0.5-0.3,0.8-0.4,1.1
		c-0.2,0.3-0.4,0.5-0.5,0.7c-0.3,0.3-0.6,0.5-1,0.7c-0.4,0.1-0.9,0.2-1.4,0.2c-0.5,0-0.8,0-1.1,0c-0.3,0-0.5-0.1-0.6-0.2
		c-0.1-0.1-0.2-0.2-0.2-0.4c0-0.2,0-0.4,0-0.7V119.4z"/>
</g>
</svg>
